Monda-Regular.ufo
<glyph name="comma" format="1">
  <advance width="641"/>
  <unicode hex="002C"/>
  <outline>
    <contour>
      <point x="277" y="-338" type="curve"/>
      <point x="196" y="-294" type="line"/>
      <point x="243" y="-239"/>
      <point x="333" y="-132"/>
      <point x="333" y="0" type="curve"/>
      <point x="192" y="0" type="line"/>
      <point x="192" y="233" type="line"/>
      <point x="449" y="233" type="line"/>
      <point x="449" y="50" type="line" smooth="yes"/>
      <point x="449" y="-141"/>
      <point x="335" y="-284"/>
    </contour>
  </outline>
</glyph>
<glyph name="slash" format="1">
  <advance width="768"/>
  <unicode hex="002F"/>
  <outline>
    <contour>
      <point x="521" y="1506" type="line"/>
      <point x="704" y="1506" type="line"/>
      <point x="251" y="0" type="line"/>
      <point x="64" y="0" type="line"/>
    </contour>
  </outline>
</glyph>
<glyph name="one" format="1">
  <advance width="1250"/>
  <unicode hex="0031"/>
  <outline>
    <contour>
      <point x="206" y="0" type="line"/>
      <point x="206" y="155" type="line"/>
      <point x="607" y="155" type="line"/>
      <point x="607" y="1277" type="line"/>
      <point x="233" y="1237" type="line"/>
      <point x="215" y="1396" type="line"/>
      <point x="644" y="1446" type="line"/>
      <point x="808" y="1446" type="line"/>
      <point x="808" y="155" type="line"/>
      <point x="1162" y="155" type="line"/>
      <point x="1162" y="0" type="line"/>
    </contour>
  </outline>
</glyph>
<glyph name="at" format="1">
  <advance width="2048"/>
  <unicode hex="0040"/>
  <outline>
    <contour>
      <point x="1153" y="343" type="curve" smooth="yes"/>
      <point x="1279" y="343"/>
      <point x="1464" y="412"/>
      <point x="1497" y="522" type="curve"/>
      <point x="1497" y="825" type="line"/>
      <point x="1479" y="816"/>
      <point x="1365" y="788"/>
      <point x="1213" y="749" type="curve" smooth="yes"/>
      <point x="973" y="687"/>
      <point x="940" y="627"/>
      <point x="947" y="514" type="curve" smooth="yes"/>
      <point x="954" y="396"/>
      <point x="1038" y="343"/>
    </contour>
    <contour>
      <point x="1104" y="-258" type="curve" smooth="yes"/>
      <point x="566" y="-258"/>
      <point x="362" y="-3"/>
      <point x="362" y="332" type="curve" smooth="yes"/>
      <point x="362" y="895" type="line" smooth="yes"/>
      <point x="362" y="1236"/>
      <point x="521" y="1483"/>
      <point x="1062" y="1483" type="curve" smooth="yes"/>
      <point x="1681" y="1483"/>
      <point x="1676" y="1153"/>
      <point x="1676" y="963" type="curve" smooth="yes"/>
      <point x="1676" y="516" type="line" smooth="yes"/>
      <point x="1676" y="401"/>
      <point x="1668" y="360"/>
      <point x="1792" y="360" type="curve"/>
      <point x="1772" y="212" type="line"/>
      <point x="1732" y="212" type="line" smooth="yes"/>
      <point x="1575" y="212"/>
      <point x="1546" y="294"/>
      <point x="1521" y="376" type="curve"/>
      <point x="1468" y="296"/>
      <point x="1338" y="195"/>
      <point x="1121" y="195" type="curve" smooth="yes"/>
      <point x="870" y="195"/>
      <point x="744" y="351"/>
      <point x="744" y="533" type="curve" smooth="yes"/>
      <point x="744" y="689"/>
      <point x="811" y="790"/>
      <point x="1197" y="883" type="curve" smooth="yes"/>
      <point x="1330" y="915"/>
      <point x="1496" y="955"/>
      <point x="1497" y="955" type="curve"/>
      <point x="1497" y="1180"/>
      <point x="1461" y="1331"/>
      <point x="1062" y="1331" type="curve" smooth="yes"/>
      <point x="729" y="1331"/>
      <point x="552" y="1222"/>
      <point x="552" y="936" type="curve" smooth="yes"/>
      <point x="552" y="298" type="line" smooth="yes"/>
      <point x="552" y="13"/>
      <point x="769" y="-111"/>
      <point x="1104" y="-111" type="curve" smooth="yes"/>
      <point x="1319" y="-111"/>
      <point x="1520" y="-61"/>
      <point x="1621" y="-17" type="curve"/>
      <point x="1671" y="-158" type="line"/>
      <point x="1556" y="-207"/>
      <point x="1327" y="-258"/>
    </contour>
  </outline>
</glyph>
<glyph name="G" format="1">
  <advance width="1544"/>
  <unicode hex="0047"/>
  <outline>
    <contour>
      <point x="788" y="-22" type="curve" smooth="yes"/>
      <point x="305" y="-22"/>
      <point x="186" y="185"/>
      <point x="186" y="486" type="curve" smooth="yes"/>
      <point x="186" y="940" type="line" smooth="yes"/>
      <point x="186" y="1246"/>
      <point x="303" y="1468"/>
      <point x="788" y="1468" type="curve" smooth="yes"/>
      <point x="1255" y="1468"/>
      <point x="1355" y="1253"/>
      <point x="1355" y="997" type="curve" smooth="yes"/>
      <point x="1355" y="980" type="line"/>
      <point x="1160" y="965" type="line"/>
      <point x="1160" y="1004" type="line" smooth="yes"/>
      <point x="1160" y="1261"/>
      <point x="1044" y="1306"/>
      <point x="788" y="1306" type="curve" smooth="yes"/>
      <point x="534" y="1306"/>
      <point x="388" y="1234"/>
      <point x="388" y="977" type="curve" smooth="yes"/>
      <point x="388" y="455" type="line" smooth="yes"/>
      <point x="388" y="199"/>
      <point x="532" y="140"/>
      <point x="788" y="140" type="curve" smooth="yes"/>
      <point x="1046" y="140"/>
      <point x="1158" y="199"/>
      <point x="1158" y="455" type="curve" smooth="yes"/>
      <point x="1158" y="588" type="line"/>
      <point x="815" y="588" type="line"/>
      <point x="815" y="735" type="line"/>
      <point x="1360" y="735" type="line"/>
      <point x="1360" y="0" type="line"/>
      <point x="1250" y="0" type="line"/>
      <point x="1225" y="246" type="line"/>
      <point x="1201" y="89"/>
      <point x="1074" y="-22"/>
    </contour>
  </outline>
</glyph>
<glyph name="H" format="1">
  <advance width="1528"/>
  <unicode hex="0048"/>
  <outline>
    <contour>
      <point x="212" y="0" type="line"/>
      <point x="212" y="1446" type="line"/>
      <point x="413" y="1446" type="line"/>
      <point x="413" y="807" type="line"/>
      <point x="1115" y="807" type="line"/>
      <point x="1115" y="1446" type="line"/>
      <point x="1316" y="1446" type="line"/>
      <point x="1316" y="0" type="line"/>
      <point x="1115" y="0" type="line"/>
      <point x="1115" y="659" type="line"/>
      <point x="413" y="659" type="line"/>
      <point x="413" y="0" type="line"/>
    </contour>
  </outline>
</glyph>
<glyph name="T" format="1">
  <advance width="1204"/>
  <unicode hex="0054"/>
  <outline>
    <contour>
      <point x="501" y="0" type="line"/>
      <point x="501" y="1281" type="line"/>
      <point x="84" y="1281" type="line"/>
      <point x="84" y="1446" type="line"/>
      <point x="1120" y="1446" type="line"/>
      <point x="1120" y="1281" type="line"/>
      <point x="702" y="1281" type="line"/>
      <point x="702" y="0" type="line"/>
    </contour>
  </outline>
</glyph>
<glyph name="bracketleft" format="1">
  <advance width="768"/>
  <unicode hex="005B"/>
  <outline>
    <contour>
      <point x="256" y="-76" type="line"/>
      <point x="256" y="1529" type="line"/>
      <point x="634" y="1529" type="line"/>
      <point x="634" y="1396" type="line"/>
      <point x="444" y="1396" type="line"/>
      <point x="444" y="58" type="line"/>
      <point x="634" y="58" type="line"/>
      <point x="634" y="-76" type="line"/>
    </contour>
  </outline>
</glyph>
<glyph name="g" format="1">
  <advance width="1186"/>
  <unicode hex="0067"/>
  <outline>
    <contour>
      <point x="579" y="184" type="curve" smooth="yes"/>
      <point x="719" y="184"/>
      <point x="792" y="240"/>
      <point x="822" y="264" type="curve"/>
      <point x="822" y="790" type="line" smooth="yes"/>
      <point x="822" y="882"/>
      <point x="745" y="936"/>
      <point x="578" y="936" type="curve" smooth="yes"/>
      <point x="430" y="936"/>
      <point x="336" y="878"/>
      <point x="336" y="748" type="curve" smooth="yes"/>
      <point x="336" y="350" type="line" smooth="yes"/>
      <point x="336" y="223"/>
      <point x="441" y="184"/>
    </contour>
    <contour>
      <point x="603" y="-375" type="curve" smooth="yes"/>
      <point x="460" y="-375"/>
      <point x="331" y="-364"/>
      <point x="253" y="-335" type="curve"/>
      <point x="295" y="-194" type="line"/>
      <point x="360" y="-218"/>
      <point x="494" y="-236"/>
      <point x="602" y="-231" type="curve" smooth="yes"/>
      <point x="764" y="-224"/>
      <point x="822" y="-139"/>
      <point x="822" y="2" type="curve" smooth="yes"/>
      <point x="822" y="116" type="line"/>
      <point x="762" y="60"/>
      <point x="623" y="40"/>
      <point x="550" y="40" type="curve" smooth="yes"/>
      <point x="279" y="40"/>
      <point x="148" y="159"/>
      <point x="148" y="379" type="curve" smooth="yes"/>
      <point x="148" y="728" type="line" smooth="yes"/>
      <point x="148" y="941"/>
      <point x="274" y="1080"/>
      <point x="550" y="1080" type="curve" smooth="yes"/>
      <point x="658" y="1080"/>
      <point x="792" y="1025"/>
      <point x="822" y="975" type="curve"/>
      <point x="822" y="1060" type="line"/>
      <point x="1010" y="1060" type="line"/>
      <point x="1010" y="25" type="line" smooth="yes"/>
      <point x="1010" y="-223"/>
      <point x="883" y="-375"/>
    </contour>
  </outline>
</glyph>
<glyph name="l" format="1">
  <advance width="696"/>
  <unicode hex="006C"/>
  <outline>
    <contour>
      <point x="530" y="-8" type="line" smooth="yes"/>
      <point x="298" y="-8"/>
      <point x="190" y="49"/>
      <point x="190" y="358" type="curve" smooth="yes"/>
      <point x="190" y="1505" type="line"/>
      <point x="378" y="1505" type="line"/>
      <point x="378" y="356" type="line" smooth="yes"/>
      <point x="378" y="183"/>
      <point x="416" y="150"/>
      <point x="573" y="150" type="curve" smooth="yes"/>
      <point x="606" y="150" type="line"/>
      <point x="584" y="-8" type="line"/>
    </contour>
  </outline>
</glyph>
<glyph name="y" format="1">
  <advance width="1118"/>
  <unicode hex="0079"/>
  <outline>
    <contour>
      <point x="218" y="-322" type="line"/>
      <point x="218" y="-175" type="line"/>
      <point x="316" y="-175" type="line" smooth="yes"/>
      <point x="397" y="-175"/>
      <point x="473" y="-145"/>
      <point x="513" y="4" type="curve"/>
      <point x="76" y="1060" type="line"/>
      <point x="275" y="1060" type="line"/>
      <point x="599" y="216" type="line"/>
      <point x="870" y="1060" type="line"/>
      <point x="1060" y="1060" type="line"/>
      <point x="712" y="45" type="line" smooth="yes"/>
      <point x="619" y="-227"/>
      <point x="544" y="-322"/>
      <point x="323" y="-322" type="curve" smooth="yes"/>
    </contour>
  </outline>
</glyph>
<glyph name="braceright" format="1">
  <advance width="952"/>
  <unicode hex="007D"/>
  <outline>
    <contour>
      <point x="128" y="-207" type="curve"/>
      <point x="128" y="-56" type="line"/>
      <point x="422" y="-56"/>
      <point x="416" y="7"/>
      <point x="416" y="264" type="curve" smooth="yes"/>
      <point x="416" y="297" type="line" smooth="yes"/>
      <point x="416" y="469"/>
      <point x="446" y="613"/>
      <point x="520" y="649" type="curve"/>
      <point x="446" y="686"/>
      <point x="416" y="830"/>
      <point x="416" y="1002" type="curve" smooth="yes"/>
      <point x="416" y="1035" type="line" smooth="yes"/>
      <point x="416" y="1292"/>
      <point x="422" y="1355"/>
      <point x="128" y="1355" type="curve"/>
      <point x="128" y="1506" type="line"/>
      <point x="613" y="1506"/>
      <point x="608" y="1334"/>
      <point x="608" y="1028" type="curve" smooth="yes"/>
      <point x="608" y="1005" type="line" smooth="yes"/>
      <point x="608" y="708"/>
      <point x="608" y="725"/>
      <point x="836" y="725" type="curve"/>
      <point x="836" y="574" type="line"/>
      <point x="608" y="574"/>
      <point x="608" y="591"/>
      <point x="608" y="294" type="curve" smooth="yes"/>
      <point x="608" y="271" type="line" smooth="yes"/>
      <point x="608" y="-35"/>
      <point x="613" y="-207"/>
    </contour>
  </outline>
</glyph>
<glyph name="cent" format="1">
  <advance width="1110"/>
  <unicode hex="00A2"/>
  <outline>
    <component base="c"/>
    <contour>
      <point x="540" y="-205" type="line"/>
      <point x="540" y="59" type="line"/>
      <point x="643" y="59" type="line"/>
      <point x="643" y="-205" type="line"/>
    </contour>
    <contour>
      <point x="540" y="1013" type="line"/>
      <point x="540" y="1277" type="line"/>
      <point x="643" y="1277" type="line"/>
      <point x="643" y="1013" type="line"/>
    </contour>
  </outline>
</glyph>
<glyph name="macron" format="1">
  <advance width="513"/>
  <unicode hex="00AF"/>
  <outline>
    <contour>
      <point x="32" y="1359" type="line"/>
      <point x="32" y="1506" type="line"/>
      <point x="481" y="1506" type="line"/>
      <point x="481" y="1359" type="line"/>
    </contour>
  </outline>
</glyph>
<glyph name="Dcroat" format="1">
  <advance width="1215"/>
  <unicode hex="0110"/>
  <outline>
    <component base="D"/>
    <contour>
      <point x="76" y="698" type="line"/>
      <point x="76" y="849" type="line"/>
      <point x="778" y="849" type="line"/>
      <point x="778" y="698" type="line"/>
    </contour>
  </outline>
</glyph>
<glyph name="Hbar" format="1">
  <advance width="1536"/>
  <unicode hex="0126"/>
  <outline>
    <component base="H"/>
    <contour>
      <point x="144" y="1060" type="line"/>
      <point x="144" y="1184" type="line"/>
      <point x="1392" y="1184" type="line"/>
      <point x="1392" y="1060" type="line"/>
    </contour>
  </outline>
</glyph>
<glyph name="dotlessi" format="1">
  <advance width="596"/>
  <unicode hex="0131"/>
  <outline>
    <contour>
      <point x="206" y="0" type="line"/>
      <point x="206" y="1060" type="line"/>
      <point x="394" y="1060" type="line"/>
      <point x="394" y="0" type="line"/>
    </contour>
  </outline>
</glyph>
<glyph name="eng" format="1">
  <advance width="1226"/>
  <unicode hex="014B"/>
  <outline>
    <contour>
      <point x="641" y="-316" type="curve"/>
      <point x="613" y="-175" type="line"/>
      <point x="861" y="-175"/>
      <point x="862" y="-100"/>
      <point x="862" y="212" type="curve" smooth="yes"/>
      <point x="862" y="781" type="line" smooth="yes"/>
      <point x="862" y="886"/>
      <point x="771" y="936"/>
      <point x="640" y="936" type="curve" smooth="yes"/>
      <point x="456" y="936"/>
      <point x="374" y="857"/>
      <point x="374" y="755" type="curve" smooth="yes"/>
      <point x="374" y="0" type="line"/>
      <point x="186" y="0" type="line"/>
      <point x="186" y="1060" type="line"/>
      <point x="374" y="1060" type="line"/>
      <point x="374" y="957" type="line"/>
      <point x="436" y="1029"/>
      <point x="534" y="1080"/>
      <point x="688" y="1080" type="curve" smooth="yes"/>
      <point x="949" y="1080"/>
      <point x="1050" y="938"/>
      <point x="1050" y="770" type="curve" smooth="yes"/>
      <point x="1050" y="219" type="line" smooth="yes"/>
      <point x="1050" y="-162"/>
      <point x="987" y="-316"/>
    </contour>
  </outline>
</glyph>
<glyph name="ogonek" format="1">
  <advance width="513"/>
  <unicode hex="02DB"/>
  <outline>
    <contour>
      <point x="403" y="-486" type="line"/>
      <point x="224" y="-486"/>
      <point x="110" y="-410"/>
      <point x="110" y="-291" type="curve" smooth="yes"/>
      <point x="110" y="-211"/>
      <point x="162" y="-110"/>
      <point x="292" y="0" type="curve"/>
      <point x="354" y="0" type="line"/>
      <point x="287" y="-64"/>
      <point x="234" y="-170"/>
      <point x="234" y="-255" type="curve" smooth="yes"/>
      <point x="234" y="-330"/>
      <point x="276" y="-389"/>
      <point x="403" y="-389" type="curve"/>
    </contour>
  </outline>
</glyph>
<glyph name="commaaccentcomb" format="1">
  <advance width="769"/>
  <unicode hex="0326"/>
  <outline>
    <contour>
      <point x="341" y="-664" type="curve"/>
      <point x="260" y="-620" type="line"/>
      <point x="307" y="-565"/>
      <point x="397" y="-458"/>
      <point x="397" y="-326" type="curve"/>
      <point x="256" y="-326" type="line"/>
      <point x="256" y="-93" type="line"/>
      <point x="513" y="-93" type="line"/>
      <point x="513" y="-276" type="line" smooth="yes"/>
      <point x="513" y="-467"/>
      <point x="399" y="-610"/>
    </contour>
  </outline>
</glyph>
<glyph name="fraction" format="1">
  <advance width="768"/>
  <unicode hex="2044"/>
  <outline>
    <contour>
      <point x="16" y="0" type="line"/>
      <point x="569" y="1506" type="line"/>
      <point x="752" y="1506" type="line"/>
      <point x="203" y="0" type="line"/>
    </contour>
  </outline>
</glyph>
<glyph name="uni2219" format="1">
  <advance width="412"/>
  <unicode hex="2219"/>
  <outline>
    <contour>
      <point x="108" y="1277" type="line"/>
      <point x="108" y="1483" type="line"/>
      <point x="313" y="1483" type="line"/>
      <point x="313" y="1277" type="line"/>
    </contour>
  </outline>
</glyph>
